<svg xmlns="http://www.w3.org/2000/svg" viewBox="0 0 900 900">
  <rect width="900" height="900" fill="#eaf0ff"/>
  <rect x="120" y="520" width="660" height="220" fill="#1d3557"/>
  <rect x="180" y="260" width="110" height="260" fill="#4b7bec"/>
  <rect x="320" y="180" width="140" height="340" fill="#294d9b"/>
  <rect x="500" y="110" width="120" height="410" fill="#143f6b"/>
  <rect x="650" y="300" width="90" height="220" fill="#4b7bec"/>
  <g fill="#ffffff" opacity=".8">
    <rect x="205" y="295" width="18" height="18"/>
    <rect x="245" y="295" width="18" height="18"/>
    <rect x="205" y="345" width="18" height="18"/>
    <rect x="245" y="345" width="18" height="18"/>
    <rect x="355" y="230" width="24" height="24"/>
    <rect x="405" y="230" width="24" height="24"/>
    <rect x="355" y="285" width="24" height="24"/>
    <rect x="405" y="285" width="24" height="24"/>
    <rect x="535" y="170" width="22" height="22"/>
    <rect x="575" y="170" width="22" height="22"/>
    <rect x="535" y="220" width="22" height="22"/>
    <rect x="575" y="220" width="22" height="22"/>
  </g>
</svg>
