<svg xmlns="http://www.w3.org/2000/svg" viewBox="0 0 1600 900">
  <defs>
    <linearGradient id="bg" x1="100%" y1="0%" x2="0%" y2="100%">
      <stop offset="0%" stop-color="#1d3557"/>
      <stop offset="100%" stop-color="#e94c4d"/>
    </linearGradient>
  </defs>
  <rect width="1600" height="900" fill="url(#bg)"/>
  <path d="M0 660c180-90 332-110 455-62 145 57 286 43 438-44 144-83 287-92 707-30v376H0Z" fill="#fff" opacity=".12"/>
  <rect x="210" y="156" width="1180" height="588" rx="34" fill="#ffffff" opacity=".12"/>
  <rect x="290" y="230" width="1020" height="440" rx="24" fill="#fff7f4"/>
  <rect x="360" y="300" width="420" height="26" rx="13" fill="#e94c4d"/>
  <rect x="360" y="356" width="340" height="18" rx="9" fill="#f5b4b5"/>
  <rect x="860" y="290" width="350" height="250" rx="28" fill="#ffe0d5"/>
  <circle cx="1035" cy="414" r="92" fill="#ffffff" opacity=".7"/>
  <rect x="360" y="470" width="850" height="120" rx="22" fill="#ffffff"/>
</svg>
