<svg xmlns="http://www.w3.org/2000/svg" viewBox="0 0 1600 900">
  <defs>
    <linearGradient id="bg" x1="0%" y1="100%" x2="100%" y2="0%">
      <stop offset="0%" stop-color="#052d28"/>
      <stop offset="100%" stop-color="#21a67a"/>
    </linearGradient>
  </defs>
  <rect width="1600" height="900" fill="url(#bg)"/>
  <g stroke="#fff" stroke-opacity=".18" fill="none">
    <path d="M220 240h180l80 100h230l90-110h220l100 120h120"/>
    <path d="M220 470h130l110-90h240l90 100h190l110-120h170"/>
    <path d="M220 680h220l70-80h240l100 110h230l90-90h120"/>
  </g>
  <g fill="#fff" opacity=".75">
    <circle cx="220" cy="240" r="18"/>
    <circle cx="560" cy="340" r="18"/>
    <circle cx="890" cy="230" r="18"/>
    <circle cx="1240" cy="350" r="18"/>
    <circle cx="460" cy="380" r="18"/>
    <circle cx="790" cy="480" r="18"/>
    <circle cx="1100" cy="360" r="18"/>
    <circle cx="510" cy="600" r="18"/>
    <circle cx="850" cy="710" r="18"/>
    <circle cx="1170" cy="620" r="18"/>
  </g>
</svg>
